<mxfile host="app.diagrams.net" modified="2024-03-13T11:35:22.467Z" agent="Mozilla/5.0 (Windows NT 10.0; Win64; x64) AppleWebKit/537.36 (KHTML, like Gecko) Chrome/122.0.0.0 Safari/537.36 Edg/122.0.0.0" version="24.0.5" etag="eL5yDybK1oKaSGds9z66" type="github">
  <diagram name="PÃ¡gina-1" id="MFOxW-242nRO167Asnmq">
    <mxGraphModel>
      <root>
        <mxCell id="0" />
        <mxCell id="1" parent="0" />
      </root>
    </mxGraphModel>
  </diagram>
</mxfile>
